<svg width="46" height="316" viewBox="0 0 46 316" fill="none" xmlns="http://www.w3.org/2000/svg">
<path d="M-20 0C16.4508 0 46 27.9822 46 62.5C46 81.7884 36.7725 99.0352 22.2705 110.5C36.7725 121.965 46 139.212 46 158.5C46 177.51 37.0365 194.537 22.8945 206C37.0365 217.463 46 234.49 46 253.5C46 288.018 16.4508 316 -20 316C-56.4508 316 -86 288.018 -86 253.5C-86 234.49 -77.0372 217.463 -62.8955 206C-77.0372 194.537 -86 177.51 -86 158.5C-86 139.212 -76.7731 121.965 -62.2715 110.5C-76.7731 99.0352 -86 81.7882 -86 62.5C-86 27.9822 -56.4508 0 -20 0Z" fill="#FCB3CB"/>
</svg>
