<svg width="46" height="316" viewBox="0 0 46 316" fill="none" xmlns="http://www.w3.org/2000/svg">
<path d="M66 0C102.451 0 132 27.9822 132 62.5C132 81.7884 122.772 99.0352 108.271 110.5C122.772 121.965 132 139.212 132 158.5C132 177.51 123.037 194.537 108.895 206C123.037 217.463 132 234.49 132 253.5C132 288.018 102.451 316 66 316C29.5492 316 0 288.018 0 253.5C0 234.49 8.96284 217.463 23.1045 206C8.96284 194.537 0 177.51 0 158.5C0 139.212 9.22688 121.965 23.7285 110.5C9.22688 99.0352 0 81.7882 0 62.5C0 27.9822 29.5492 0 66 0Z" fill="#FCB3CB"/>
</svg>
