<svg width="1544" height="955" viewBox="0 0 1544 955" fill="none" xmlns="http://www.w3.org/2000/svg">
<g opacity="0.6">
<path d="M923.723 156.025C887.683 120.288 892.557 88.6855 899.499 77.3513" stroke="url(#paint0_linear_1879_2809)" stroke-width="10"/>
<path d="M742.56 168.634C736.302 83.7866 697.307 105.728 678.592 127.305" stroke="url(#paint1_linear_1879_2809)" stroke-width="10"/>
<path opacity="0.94" d="M834.862 267.011C808.905 288.979 788.096 283.88 780.937 278.585" stroke="url(#paint2_linear_1879_2809)" stroke-width="10"/>
<path opacity="0.73" d="M909.132 348.438C937.079 386.262 958.146 366.599 965.187 352.04" stroke="url(#paint3_linear_1879_2809)" stroke-width="10"/>
<path opacity="0.73" d="M19.1322 371.438C47.0786 409.262 68.1461 389.599 75.1865 375.04" stroke="url(#paint4_linear_1879_2809)" stroke-width="10"/>
<path opacity="0.98" d="M1110.94 217.185C1056.22 210.809 1056.18 244.567 1062.99 262.243" stroke="url(#paint5_linear_1879_2809)" stroke-width="10"/>
<path opacity="0.75" d="M211.358 113.6C168.334 98.2399 161.998 125.508 164.208 141.062" stroke="url(#paint6_linear_1879_2809)" stroke-width="10"/>
<path opacity="0.82" d="M50.1521 34.249C-20.0475 27.3084 -19.3541 70.5296 -10.2324 93.0078" stroke="url(#paint7_linear_1879_2809)" stroke-width="10"/>
<path opacity="0.79" d="M1048.68 4.67506C1050.31 -51.7351 1015.85 -48.7698 998.422 -40.2358" stroke="url(#paint8_linear_1879_2809)" stroke-width="10"/>
<path opacity="0.7" d="M1227 292.957C1271.75 379.963 1303.17 339.214 1313.29 307.963" stroke="url(#paint9_linear_1879_2809)" stroke-width="10"/>
<path opacity="0.7" d="M268.308 328.806C313.058 415.812 344.479 375.063 354.595 343.813" stroke="url(#paint10_linear_1879_2809)" stroke-width="10"/>
<path opacity="0.97" d="M1235.01 173.323C1202.06 161.484 1195.89 140.3 1196.92 131.188" stroke="url(#paint11_linear_1879_2809)" stroke-width="10"/>
<path opacity="0.97" d="M298.014 207.323C265.056 195.484 258.888 174.3 259.924 165.188" stroke="url(#paint12_linear_1879_2809)" stroke-width="10"/>
<path opacity="0.78" d="M1164.21 -28.4753C1153.03 30.3622 1118.9 46.4472 1103.23 47.135" stroke="url(#paint13_linear_1879_2809)" stroke-width="10"/>
<path opacity="0.78" d="M274.209 -5.47527C263.03 53.3622 228.898 69.4472 213.229 70.135" stroke="url(#paint14_linear_1879_2809)" stroke-width="10"/>
<path opacity="0.83" d="M1293.06 64.8759C1342.24 39.5824 1319.21 21.8231 1301.54 16.1051" stroke="url(#paint15_linear_1879_2809)" stroke-width="10"/>
<path opacity="0.83" d="M466.051 55.5805C515.228 30.287 492.196 12.5277 474.533 6.80967" stroke="url(#paint16_linear_1879_2809)" stroke-width="10"/>
<path opacity="0.74" d="M1358.68 204C1393.2 276.854 1435.14 250.734 1451.79 228.567" stroke="url(#paint17_linear_1879_2809)" stroke-width="10"/>
<path opacity="0.74" d="M534.43 246C552.04 283.164 573.43 269.84 581.924 258.532" stroke="url(#paint18_linear_1879_2809)" stroke-width="10"/>
<path opacity="0.71" d="M1368 82.1863C1426.84 90.2028 1444.54 123.164 1446.03 138.643" stroke="url(#paint19_linear_1879_2809)" stroke-width="10"/>
<path opacity="0.71" d="M498.586 98.6888C557.425 106.705 575.123 139.667 576.617 155.145" stroke="url(#paint20_linear_1879_2809)" stroke-width="10"/>
<path opacity="0.91" d="M1546.38 -20.9691C1478.37 -18.3347 1494.83 13.455 1511.55 29.0206" stroke="url(#paint21_linear_1879_2809)" stroke-width="10"/>
<path opacity="0.84" d="M1505 181.07C1556.76 193.744 1569.47 224.823 1569.35 238.778" stroke="url(#paint22_linear_1879_2809)" stroke-width="10"/>
</g>
<g opacity="0.2">
<path d="M923.723 712.025C887.683 676.288 892.557 644.686 899.499 633.351" stroke="url(#paint23_linear_1879_2809)" stroke-width="10"/>
<path opacity="0.79" d="M836.132 514.394C782.837 495.836 775.274 529.58 778.154 548.772" stroke="url(#paint24_linear_1879_2809)" stroke-width="10"/>
<path d="M742.56 724.634C736.302 639.787 697.307 661.728 678.592 683.305" stroke="url(#paint25_linear_1879_2809)" stroke-width="10"/>
<path opacity="0.79" d="M799.139 873.904C809.752 915.72 792.366 936.611 782.346 941.83" stroke="url(#paint26_linear_1879_2809)" stroke-width="10"/>
<path opacity="0.73" d="M19.1322 927.438C47.0786 965.262 68.1461 945.599 75.1865 931.04" stroke="url(#paint27_linear_1879_2809)" stroke-width="10"/>
<path opacity="0.98" d="M1110.94 773.185C1056.22 766.809 1056.18 800.567 1062.99 818.243" stroke="url(#paint28_linear_1879_2809)" stroke-width="10"/>
<path opacity="0.82" d="M50.1521 590.249C-20.0475 583.308 -19.3541 626.53 -10.2324 649.008" stroke="url(#paint29_linear_1879_2809)" stroke-width="10"/>
<path opacity="0.79" d="M1048.68 560.675C1050.3 504.265 1015.85 507.23 998.42 515.764" stroke="url(#paint30_linear_1879_2809)" stroke-width="10"/>
<path opacity="0.7" d="M1227 848.957C1271.75 935.963 1303.17 895.214 1313.29 863.963" stroke="url(#paint31_linear_1879_2809)" stroke-width="10"/>
<path opacity="0.7" d="M268.308 884.806C313.058 971.812 344.479 931.063 354.595 899.813" stroke="url(#paint32_linear_1879_2809)" stroke-width="10"/>
<path opacity="0.97" d="M298.014 763.323C265.056 751.484 258.888 730.3 259.924 721.188" stroke="url(#paint33_linear_1879_2809)" stroke-width="10"/>
<path opacity="0.78" d="M1164.21 527.525C1153.03 586.362 1118.9 602.447 1103.23 603.135" stroke="url(#paint34_linear_1879_2809)" stroke-width="10"/>
<path opacity="0.78" d="M274.209 550.525C263.03 609.362 228.898 625.447 213.229 626.135" stroke="url(#paint35_linear_1879_2809)" stroke-width="10"/>
<path opacity="0.83" d="M466.051 611.581C515.228 586.287 492.196 568.528 474.533 562.81" stroke="url(#paint36_linear_1879_2809)" stroke-width="10"/>
<path opacity="0.74" d="M534.43 802C552.04 839.164 573.43 825.84 581.924 814.532" stroke="url(#paint37_linear_1879_2809)" stroke-width="10"/>
<path opacity="0.71" d="M1368 638.186C1426.84 646.203 1444.54 679.164 1446.03 694.643" stroke="url(#paint38_linear_1879_2809)" stroke-width="10"/>
<path opacity="0.91" d="M1546.38 535.031C1478.37 537.665 1494.82 569.455 1511.55 585.021" stroke="url(#paint39_linear_1879_2809)" stroke-width="10"/>
<path opacity="0.84" d="M1505 737.07C1556.76 749.744 1569.47 780.823 1569.35 794.778" stroke="url(#paint40_linear_1879_2809)" stroke-width="10"/>
</g>
<defs>
<linearGradient id="paint0_linear_1879_2809" x1="895.952" y1="117.843" x2="920.771" y2="116.013" gradientUnits="userSpaceOnUse">
<stop stop-color="#5C27D1"/>
<stop offset="1" stop-color="#F2FDFF"/>
</linearGradient>
<linearGradient id="paint1_linear_1879_2809" x1="679.649" y1="141.642" x2="740.24" y2="137.173" gradientUnits="userSpaceOnUse">
<stop stop-color="#F9137D"/>
<stop offset="1" stop-color="#F69A2B"/>
</linearGradient>
<linearGradient id="paint2_linear_1879_2809" x1="807.756" y1="283.317" x2="807.983" y2="266.644" gradientUnits="userSpaceOnUse">
<stop stop-color="#5C27D1"/>
<stop offset="1" stop-color="#F2FDFF"/>
</linearGradient>
<linearGradient id="paint3_linear_1879_2809" x1="964.55" y1="361.945" x2="908.496" y2="358.344" gradientUnits="userSpaceOnUse">
<stop stop-color="#5C27D1"/>
<stop offset="1" stop-color="#F9137D"/>
</linearGradient>
<linearGradient id="paint4_linear_1879_2809" x1="74.5501" y1="384.945" x2="18.4958" y2="381.344" gradientUnits="userSpaceOnUse">
<stop stop-color="#5C27D1"/>
<stop offset="1" stop-color="#F9137D"/>
</linearGradient>
<linearGradient id="paint5_linear_1879_2809" x1="1055.03" y1="253.77" x2="1102.98" y2="208.712" gradientUnits="userSpaceOnUse">
<stop stop-color="#5C27D1"/>
<stop offset="1" stop-color="#F9137D"/>
</linearGradient>
<linearGradient id="paint6_linear_1879_2809" x1="159.355" y1="132.73" x2="206.506" y2="105.268" gradientUnits="userSpaceOnUse">
<stop stop-color="#5C27D1"/>
<stop offset="1" stop-color="#F9137D"/>
</linearGradient>
<linearGradient id="paint7_linear_1879_2809" x1="-20.6159" y1="82.337" x2="39.7686" y2="23.5782" gradientUnits="userSpaceOnUse">
<stop stop-color="#5C27D1"/>
<stop offset="1" stop-color="#F9137D"/>
</linearGradient>
<linearGradient id="paint8_linear_1879_2809" x1="1006.36" y1="-49.1179" x2="1056.62" y2="-4.207" gradientUnits="userSpaceOnUse">
<stop stop-color="#5C27D1"/>
<stop offset="1" stop-color="#F9137D"/>
</linearGradient>
<linearGradient id="paint9_linear_1879_2809" x1="1305.73" y1="293.262" x2="1243.59" y2="325.218" gradientUnits="userSpaceOnUse">
<stop stop-color="#F9137D"/>
<stop offset="1" stop-color="#F69A2B"/>
</linearGradient>
<linearGradient id="paint10_linear_1879_2809" x1="347.034" y1="329.111" x2="284.902" y2="361.067" gradientUnits="userSpaceOnUse">
<stop stop-color="#F9137D"/>
<stop offset="1" stop-color="#F69A2B"/>
</linearGradient>
<linearGradient id="paint11_linear_1879_2809" x1="1206.51" y1="157.544" x2="1221.5" y2="149.161" gradientUnits="userSpaceOnUse">
<stop stop-color="#5C27D1"/>
<stop offset="1" stop-color="#F2FDFF"/>
</linearGradient>
<linearGradient id="paint12_linear_1879_2809" x1="269.514" y1="191.544" x2="284.501" y2="183.161" gradientUnits="userSpaceOnUse">
<stop stop-color="#5C27D1"/>
<stop offset="1" stop-color="#F2FDFF"/>
</linearGradient>
<linearGradient id="paint13_linear_1879_2809" x1="1145.18" y1="23.886" x2="1127.01" y2="0.814003" gradientUnits="userSpaceOnUse">
<stop stop-color="#5C27D1"/>
<stop offset="1" stop-color="#F2FDFF"/>
</linearGradient>
<linearGradient id="paint14_linear_1879_2809" x1="255.181" y1="46.886" x2="237.014" y2="23.814" gradientUnits="userSpaceOnUse">
<stop stop-color="#5C27D1"/>
<stop offset="1" stop-color="#F2FDFF"/>
</linearGradient>
<linearGradient id="paint15_linear_1879_2809" x1="1293.23" y1="20.379" x2="1311.3" y2="55.4971" gradientUnits="userSpaceOnUse">
<stop stop-color="#F9137D"/>
<stop offset="1" stop-color="#F69A2B"/>
</linearGradient>
<linearGradient id="paint16_linear_1879_2809" x1="466.223" y1="11.0836" x2="484.286" y2="46.2017" gradientUnits="userSpaceOnUse">
<stop stop-color="#F9137D"/>
<stop offset="1" stop-color="#F69A2B"/>
</linearGradient>
<linearGradient id="paint17_linear_1879_2809" x1="1447.45" y1="245.02" x2="1354.34" y2="220.453" gradientUnits="userSpaceOnUse">
<stop stop-color="#5C27D1"/>
<stop offset="1" stop-color="#F9137D"/>
</linearGradient>
<linearGradient id="paint18_linear_1879_2809" x1="579.709" y1="266.925" x2="532.215" y2="254.393" gradientUnits="userSpaceOnUse">
<stop stop-color="#5C27D1"/>
<stop offset="1" stop-color="#F9137D"/>
</linearGradient>
<linearGradient id="paint19_linear_1879_2809" x1="1420.83" y1="98.31" x2="1398.93" y2="117.496" gradientUnits="userSpaceOnUse">
<stop stop-color="#5C27D1"/>
<stop offset="1" stop-color="#F2FDFF"/>
</linearGradient>
<linearGradient id="paint20_linear_1879_2809" x1="551.42" y1="114.812" x2="529.517" y2="133.999" gradientUnits="userSpaceOnUse">
<stop stop-color="#5C27D1"/>
<stop offset="1" stop-color="#F2FDFF"/>
</linearGradient>
<linearGradient id="paint21_linear_1879_2809" x1="1523.05" y1="28.5755" x2="1521.17" y2="-19.9923" gradientUnits="userSpaceOnUse">
<stop stop-color="#F9137D"/>
<stop offset="1" stop-color="#F69A2B"/>
</linearGradient>
<linearGradient id="paint22_linear_1879_2809" x1="1550.64" y1="200.416" x2="1529.29" y2="215.486" gradientUnits="userSpaceOnUse">
<stop stop-color="#5C27D1"/>
<stop offset="1" stop-color="#F2FDFF"/>
</linearGradient>
<linearGradient id="paint23_linear_1879_2809" x1="895.952" y1="673.843" x2="920.771" y2="672.013" gradientUnits="userSpaceOnUse">
<stop stop-color="#5C27D1"/>
<stop offset="1" stop-color="#F2FDFF"/>
</linearGradient>
<linearGradient id="paint24_linear_1879_2809" x1="772.079" y1="538.526" x2="830.057" y2="504.148" gradientUnits="userSpaceOnUse">
<stop stop-color="#5C27D1"/>
<stop offset="1" stop-color="#F9137D"/>
</linearGradient>
<linearGradient id="paint25_linear_1879_2809" x1="679.649" y1="697.642" x2="740.24" y2="693.173" gradientUnits="userSpaceOnUse">
<stop stop-color="#F9137D"/>
<stop offset="1" stop-color="#F69A2B"/>
</linearGradient>
<linearGradient id="paint26_linear_1879_2809" x1="802.657" y1="913.881" x2="783.772" y2="904.349" gradientUnits="userSpaceOnUse">
<stop stop-color="#5C27D1"/>
<stop offset="1" stop-color="#F2FDFF"/>
</linearGradient>
<linearGradient id="paint27_linear_1879_2809" x1="74.5501" y1="940.945" x2="18.4958" y2="937.344" gradientUnits="userSpaceOnUse">
<stop stop-color="#5C27D1"/>
<stop offset="1" stop-color="#F9137D"/>
</linearGradient>
<linearGradient id="paint28_linear_1879_2809" x1="1055.03" y1="809.77" x2="1102.98" y2="764.712" gradientUnits="userSpaceOnUse">
<stop stop-color="#5C27D1"/>
<stop offset="1" stop-color="#F9137D"/>
</linearGradient>
<linearGradient id="paint29_linear_1879_2809" x1="-20.6159" y1="638.337" x2="39.7686" y2="579.578" gradientUnits="userSpaceOnUse">
<stop stop-color="#5C27D1"/>
<stop offset="1" stop-color="#F9137D"/>
</linearGradient>
<linearGradient id="paint30_linear_1879_2809" x1="1006.36" y1="506.882" x2="1056.62" y2="551.793" gradientUnits="userSpaceOnUse">
<stop stop-color="#5C27D1"/>
<stop offset="1" stop-color="#F9137D"/>
</linearGradient>
<linearGradient id="paint31_linear_1879_2809" x1="1305.72" y1="849.262" x2="1243.59" y2="881.218" gradientUnits="userSpaceOnUse">
<stop stop-color="#F9137D"/>
<stop offset="1" stop-color="#F69A2B"/>
</linearGradient>
<linearGradient id="paint32_linear_1879_2809" x1="347.034" y1="885.111" x2="284.902" y2="917.067" gradientUnits="userSpaceOnUse">
<stop stop-color="#F9137D"/>
<stop offset="1" stop-color="#F69A2B"/>
</linearGradient>
<linearGradient id="paint33_linear_1879_2809" x1="269.514" y1="747.544" x2="284.501" y2="739.161" gradientUnits="userSpaceOnUse">
<stop stop-color="#5C27D1"/>
<stop offset="1" stop-color="#F2FDFF"/>
</linearGradient>
<linearGradient id="paint34_linear_1879_2809" x1="1145.18" y1="579.886" x2="1127.01" y2="556.814" gradientUnits="userSpaceOnUse">
<stop stop-color="#5C27D1"/>
<stop offset="1" stop-color="#F2FDFF"/>
</linearGradient>
<linearGradient id="paint35_linear_1879_2809" x1="255.181" y1="602.886" x2="237.014" y2="579.814" gradientUnits="userSpaceOnUse">
<stop stop-color="#5C27D1"/>
<stop offset="1" stop-color="#F2FDFF"/>
</linearGradient>
<linearGradient id="paint36_linear_1879_2809" x1="466.223" y1="567.084" x2="484.286" y2="602.202" gradientUnits="userSpaceOnUse">
<stop stop-color="#F9137D"/>
<stop offset="1" stop-color="#F69A2B"/>
</linearGradient>
<linearGradient id="paint37_linear_1879_2809" x1="579.709" y1="822.925" x2="532.215" y2="810.393" gradientUnits="userSpaceOnUse">
<stop stop-color="#5C27D1"/>
<stop offset="1" stop-color="#F9137D"/>
</linearGradient>
<linearGradient id="paint38_linear_1879_2809" x1="1420.83" y1="654.31" x2="1398.93" y2="673.496" gradientUnits="userSpaceOnUse">
<stop stop-color="#5C27D1"/>
<stop offset="1" stop-color="#F2FDFF"/>
</linearGradient>
<linearGradient id="paint39_linear_1879_2809" x1="1523.05" y1="584.575" x2="1521.16" y2="536.008" gradientUnits="userSpaceOnUse">
<stop stop-color="#F9137D"/>
<stop offset="1" stop-color="#F69A2B"/>
</linearGradient>
<linearGradient id="paint40_linear_1879_2809" x1="1550.64" y1="756.416" x2="1529.29" y2="771.486" gradientUnits="userSpaceOnUse">
<stop stop-color="#5C27D1"/>
<stop offset="1" stop-color="#F2FDFF"/>
</linearGradient>
</defs>
</svg>
